name D:\Gebruiker\Documents\~school~\WTK\thesis\model\3dpredictsim_Lars\Results\Test_Lars\Test1_bCst_exo.mot
datacolumns 126
datarows 4
range 1.73347560 1.76814511
endheader
time	pelvis_tilt	pelvis_list	pelvis_rotation	pelvis_tx	pelvis_ty	pelvis_tz	hip_flexion_l	hip_adduction_l	hip_rotation_l	hip_flexion_r	hip_adduction_r	hip_rotation_r	knee_angle_l	knee_angle_r	ankle_angle_l	ankle_angle_r	subtalar_angle_l	subtalar_angle_r	mtp_angle_l	mtp_angle_r	lumbar_extension	lumbar_bending	lumbar_rotation	arm_flex_l	arm_add_l	arm_rot_l	arm_flex_r	arm_add_r	arm_rot_r	elbow_flex_l	elbow_flex_r	pro_sup_l	pro_sup_r	glut_med1_l/activation	glut_med2_l/activation	glut_med3_l/activation	glut_min1_l/activation	glut_min2_l/activation	glut_min3_l/activation	semimem_l/activation	semiten_l/activation	bifemlh_l/activation	bifemsh_l/activation	sar_l/activation	add_long_l/activation	add_brev_l/activation	add_mag1_l/activation	add_mag2_l/activation	add_mag3_l/activation	tfl_l/activation	pect_l/activation	grac_l/activation	glut_max1_l/activation	glut_max2_l/activation	glut_max3_l/activation	iliacus_l/activation	psoas_l/activation	quad_fem_l/activation	gem_l/activation	peri_l/activation	rect_fem_l/activation	vas_med_l/activation	vas_int_l/activation	vas_lat_l/activation	med_gas_l/activation	lat_gas_l/activation	soleus_l/activation	tib_post_l/activation	flex_dig_l/activation	flex_hal_l/activation	tib_ant_l/activation	per_brev_l/activation	per_long_l/activation	per_tert_l/activation	ext_dig_l/activation	ext_hal_l/activation	ercspn_l/activation	intobl_l/activation	extobl_l/activation	glut_med1_r/activation	glut_med2_r/activation	glut_med3_r/activation	glut_min1_r/activation	glut_min2_r/activation	glut_min3_r/activation	semimem_r/activation	semiten_r/activation	bifemlh_r/activation	bifemsh_r/activation	sar_r/activation	add_long_r/activation	add_brev_r/activation	add_mag1_r/activation	add_mag2_r/activation	add_mag3_r/activation	tfl_r/activation	pect_r/activation	grac_r/activation	glut_max1_r/activation	glut_max2_r/activation	glut_max3_r/activation	iliacus_r/activation	psoas_r/activation	quad_fem_r/activation	gem_r/activation	peri_r/activation	rect_fem_r/activation	vas_med_r/activation	vas_int_r/activation	vas_lat_r/activation	med_gas_r/activation	lat_gas_r/activation	soleus_r/activation	tib_post_r/activation	flex_dig_r/activation	flex_hal_r/activation	tib_ant_r/activation	per_brev_r/activation	per_long_r/activation	per_tert_r/activation	ext_dig_r/activation	ext_hal_r/activation	ercspn_r/activation	intobl_r/activation	extobl_r/activation	
          1.73347560	         -2.92852630	          1.35622654	         -6.50822155	          2.16684450	          0.85939205	          0.00174825	         32.32926183	          1.56680865	         -1.23839030	        -14.56515716	         -1.52839421	          7.15892411	        -17.54443681	        -17.34725476	          8.34197480	         -6.46555642	          1.74380853	         13.45595818	         -0.10573087	         29.32665378	         -0.43012257	          0.61447921	          2.06130937	        -10.15914626	        -13.51293237	          8.87410547	          4.05320665	        -13.49693194	         17.63480883	         16.45307048	         39.00604928	         86.51662706	         86.51662706	          0.05000192	          0.05000102	          0.05000210	          0.05000171	          0.05000186	          0.05000529	          0.05963052	          0.05961337	          0.17831025	          0.05000268	          0.05621891	          0.07154599	          0.12375973	          0.15227802	          0.15648465	          0.13524156	          0.05000573	          0.05960686	          0.05714225	          0.05000165	          0.07805604	          0.11530500	          0.05962949	          0.05822499	          0.16093629	          0.05001674	          0.05008762	          0.05307976	          0.13601599	          0.13798948	          0.11679033	          0.05963036	          0.05963028	          0.05963040	          0.05000040	          0.05959664	          0.05962982	          0.57972502	          0.32884052	          0.18604396	          0.33553560	          0.58829419	          0.37582724	          0.05320855	          0.11340550	          0.10483942	          0.16795766	          0.08481213	          0.06618446	          0.20438412	          0.12711373	          0.08481257	          0.05000831	          0.05000105	          0.05000102	          0.05000221	          0.09259733	          0.06863859	          0.05000220	          0.05000281	          0.05000407	          0.05000166	          0.18018190	          0.05007379	          0.05000786	          0.05002450	          0.05001101	          0.05000421	          0.33226001	          0.52289488	          0.05000727	          0.05000802	          0.05000443	          0.19517812	          0.09389317	          0.09169923	          0.08480384	          0.15097203	          0.22847076	          0.05963041	          0.15677402	          0.17240572	          0.19681416	          0.06009673	          0.29521725	          0.30120502	          0.05000048	          0.24717585	          0.05000130	          0.05000006	          0.05000029	          0.05000030	
          1.74503211	         -2.92035187	          1.28701395	         -6.67370377	          2.18503745	          0.85822567	          0.00146009	         31.66268352	          1.78233311	         -1.05612577	        -14.74915533	         -1.69500458	          6.97321234	        -17.45415206	        -18.59918984	          7.82305554	         -8.94646800	          1.36042571	         13.91437751	         -0.10581788	         30.51972696	         -0.20211126	          0.48023724	          2.13231552	        -11.40537631	        -13.50008582	          8.66989404	          3.70811213	        -13.54177978	         17.90096827	         16.47651807	         40.03132207	         86.51662706	         86.51662706	          0.06223467	          0.06855887	          0.08833730	          0.05000778	          0.05001110	          0.05000416	          0.05000030	          0.05000048	          0.14951305	          0.05000033	          0.05000119	          0.05999181	          0.10377300	          0.29504630	          0.22786068	          0.14045179	          0.05000448	          0.05000503	          0.05000119	          0.05963094	          0.11402570	          0.13426655	          0.05000054	          0.05000109	          0.33226113	          0.07110333	          0.06208856	          0.07111584	          0.24628406	          0.24047015	          0.20959908	          0.05000002	          0.05000005	          0.05000000	          0.05000013	          0.05000105	          0.05000061	          0.71021928	          0.32199840	          0.19263649	          0.60160647	          0.63617282	          0.40512953	          0.05000005	          0.09509034	          0.08790768	          0.14083243	          0.07111523	          0.07010775	          0.17137616	          0.10658494	          0.07111583	          0.05000818	          0.05000053	          0.05000088	          0.05000046	          0.07764328	          0.15726966	          0.15780260	          0.19843924	          0.05011907	          0.05838335	          0.15108240	          0.05006441	          0.05000275	          0.05001230	          0.05001005	          0.05001637	          0.27859954	          0.43844691	          0.05990630	          0.07111399	          0.05963593	          0.16365653	          0.10189567	          0.11001106	          0.07111766	          0.12658978	          0.19157234	          0.05000011	          0.13145476	          0.14456205	          0.16502841	          0.26382960	          0.31535847	          0.28370643	          0.46340815	          0.38450945	          0.25116368	          0.05982162	          0.07111558	          0.05000191	
          1.75658861	         -2.90642267	          1.22387255	         -6.80961923	          2.20341183	          0.85681209	          0.00119147	         30.85085355	          1.97570660	         -0.80601359	        -14.75048561	         -1.83181268	          6.78329529	        -17.95019706	        -20.20366317	          7.29620868	        -11.22333994	          0.96141858	         14.33684806	         -0.16808657	         30.90165007	          0.03510703	          0.32889726	          2.19072409	        -12.62852053	        -13.49722962	          8.54504174	          3.29887814	        -13.59247889	         18.09105314	         16.47013160	         41.04311215	         86.51662706	         86.51662706	          0.24360513	          0.23384922	          0.32725756	          0.05000197	          0.05000132	          0.05000124	          0.07983825	          0.05000346	          0.13118498	          0.05000062	          0.05000268	          0.07111622	          0.12081074	          0.24739726	          0.21875996	          0.16369663	          0.05000095	          0.07111139	          0.10744210	          0.05000089	          0.16763835	          0.16357210	          0.05000164	          0.05000075	          0.27860077	          0.05962202	          0.23990866	          0.05963054	          0.20650914	          0.20163442	          0.17574894	          0.05963052	          0.05963061	          0.05963044	          0.05217323	          0.05963085	          0.05963082	          0.60093407	          0.33330826	          0.17380760	          0.50444622	          0.62797804	          0.33970099	          0.05194649	          0.08481405	          0.07371045	          0.15433602	          0.05963042	          0.05878569	          0.14369919	          0.08937161	          0.05963086	          0.05008264	          0.05967968	          0.06648051	          0.05000439	          0.06510457	          0.16561647	          0.32663549	          0.16696299	          0.09281196	          0.12551552	          0.12668251	          0.05905597	          0.05964246	          0.05611947	          0.05962536	          0.05963732	          0.23360534	          0.36780956	          0.05963100	          0.05963010	          0.05000478	          0.13722572	          0.08543945	          0.09224418	          0.05963211	          0.10614532	          0.16063310	          0.05000003	          0.11022461	          0.12121519	          0.13837613	          0.44306340	          0.38741989	          0.29275301	          0.69691488	          0.52907282	          0.40811697	          0.07599922	          0.05963034	          0.05000182	
          1.76814511	         -2.88960153	          1.16628374	         -6.91025982	          2.22168581	          0.85517078	          0.00092724	         29.93806898	          2.15708670	         -0.52687094	        -14.54897268	         -1.93690199	          6.60688505	        -18.54501878	        -22.17937398	          7.07496040	        -13.00678459	          0.53290274	         14.72085137	         -0.17700326	         29.87863236	          0.25618462	          0.16253890	          2.23562130	        -13.76644023	        -13.50832822	          8.54078429	          2.86804135	        -13.64716557	         18.21202328	         16.39772507	         42.02908076	         86.51662706	         86.51662706	          0.31795847	          0.38782477	          0.48924468	          0.24053126	          0.21330026	          0.38426515	          0.06694689	          0.09312099	          0.10999847	          0.07111645	          0.05000366	          0.05963109	          0.10129974	          0.20744323	          0.21518653	          0.17450006	          0.05000072	          0.05962905	          0.09010457	          0.26300543	          0.21779278	          0.18824221	          0.05000073	          0.05000059	          0.23360661	          0.05000355	          0.28570659	          0.05000017	          0.22029388	          0.25877494	          0.22217474	          0.05000013	          0.05000025	          0.05000003	          0.05000004	          0.05000076	          0.05000059	          0.75316945	          0.27947875	          0.14573754	          0.72009333	          0.68819640	          0.50837085	          0.07089171	          0.07111664	          0.06180610	          0.20434744	          0.05000086	          0.05000026	          0.13852272	          0.07493838	          0.05000196	          0.05001344	          0.05004163	          0.05574426	          0.05000064	          0.05459168	          0.13887054	          0.27388568	          0.13999922	          0.07782587	          0.10524624	          0.10622334	          0.05291411	          0.05001104	          0.05000525	          0.05000435	          0.05000708	          0.19587781	          0.36888392	          0.05000081	          0.05000216	          0.05000046	          0.11506354	          0.08480938	          0.08480689	          0.05000227	          0.08900268	          0.13469062	          0.05000006	          0.09242319	          0.10163901	          0.11602832	          0.38372761	          0.32485148	          0.24547343	          0.62162059	          0.60375807	          0.34220710	          0.10781465	          0.05000005	          0.05000017	
